<svg version="1.1" id="Layer_1" xmlns="http://www.w3.org/2000/svg" xmlns:xlink="http://www.w3.org/1999/xlink" x="0px" y="0px"
	 width="100%" viewBox="0 0 3264 544" enable-background="new 0 0 3264 544" xml:space="preserve">
<path fill="none" opacity="1.000000" stroke="none" 
	d="
M3103.000000,545.000000 
	C2068.666748,545.000000 1034.833374,545.000000 1.000000,545.000000 
	C1.000000,363.666656 1.000000,182.333328 1.000000,1.000000 
	C1089.000000,1.000000 2177.000000,1.000000 3265.000000,1.000000 
	C3265.000000,182.333328 3265.000000,363.666656 3265.000000,545.000000 
	C3211.166748,545.000000 3157.333252,545.000000 3103.000000,545.000000 
M3170.012451,276.521149 
	C3177.413818,285.629913 3178.741211,296.712250 3178.855225,307.663300 
	C3179.236816,344.322815 3179.000000,380.988770 3179.000000,417.652252 
	C3179.000000,419.402100 3179.000000,421.151978 3179.000000,422.654938 
	C3201.758545,422.654938 3223.830566,422.654938 3246.000000,422.654938 
	C3246.000000,380.486542 3246.034912,338.663055 3245.955811,296.839783 
	C3245.945801,291.589783 3245.277100,286.343811 3245.013672,281.090973 
	C3244.337646,267.613892 3240.054443,255.187347 3233.763428,243.432587 
	C3225.809326,228.570465 3213.415039,218.082230 3198.368652,211.333313 
	C3183.612793,204.714478 3167.804443,202.894135 3151.473877,203.798752 
	C3138.163086,204.536087 3126.034424,208.029266 3114.758545,214.760895 
	C3106.406738,219.746811 3098.158203,224.913727 3092.315674,233.090347 
	C3090.041748,236.273026 3087.148682,239.013474 3084.556396,241.934021 
	C3069.583252,218.270294 3047.936035,206.405991 3020.443604,203.928024 
	C2992.877441,201.443481 2969.073242,209.055832 2948.820801,230.516617 
	C2948.820801,221.163757 2948.820801,213.617126 2948.820801,206.348969 
	C2925.899902,206.348969 2903.494629,206.348969 2881.000000,206.348969 
	C2881.000000,277.353241 2881.023682,348.008575 2880.933105,418.663788 
	C2880.928223,422.388367 2882.449219,423.070648 2885.715332,423.053101 
	C2905.546387,422.946533 2925.378418,423.005585 2945.209961,422.986725 
	C2946.462891,422.985535 2947.716064,422.793671 2950.000000,422.605621 
	C2950.000000,381.026459 2949.835938,339.779419 2950.102295,298.535187 
	C2950.179932,286.525055 2955.706055,277.029633 2965.555664,269.707245 
	C2975.475342,262.332855 2986.712891,262.044159 2997.866455,263.254303 
	C3008.236816,264.379456 3017.145264,269.514862 3023.103760,278.635254 
	C3027.530762,285.411255 3029.943359,292.910095 3029.961182,300.980896 
	C3030.047363,339.810669 3030.000000,378.640717 3030.000000,417.470673 
	C3030.000000,419.237976 3030.000000,421.005280 3030.000000,422.719116 
	C3052.962402,422.719116 3075.366699,422.719116 3098.000000,422.719116 
	C3098.000000,420.797058 3098.000000,419.153992 3098.000000,417.510895 
	C3098.000000,381.014069 3097.962646,344.517151 3098.044189,308.020508 
	C3098.055176,303.111725 3098.247070,298.131317 3099.083984,293.310669 
	C3101.106445,281.664276 3107.254883,272.667755 3117.794678,267.054932 
	C3125.701904,262.843933 3134.378174,262.559814 3143.062012,263.031952 
	C3153.655518,263.607941 3162.448730,268.055664 3170.012451,276.521149 
M670.000000,349.500000 
	C670.000000,320.396698 670.000000,291.293427 670.000000,260.640320 
	C672.044800,262.498322 673.321228,263.272491 674.071228,264.397614 
	C684.708130,280.355042 695.268616,296.363434 705.857666,312.352844 
	C729.526123,348.092163 753.249878,383.795135 776.770081,419.631744 
	C778.501892,422.270386 780.192505,423.053467 783.069092,423.042145 
	C803.230957,422.962555 823.393250,423.004578 843.555420,422.987183 
	C844.654846,422.986206 845.754211,422.801483 846.708740,422.715332 
	C846.708740,331.658783 846.708740,240.934448 846.708740,150.290375 
	C824.014038,150.290375 801.611816,150.290375 778.637329,150.290375 
	C778.637329,204.697037 778.637329,258.814850 778.637329,313.157288 
	C777.768982,312.822174 777.346985,312.797241 777.208313,312.586182 
	C762.083374,289.566498 746.973999,266.536560 731.876038,243.499191 
	C712.187378,213.457260 692.497803,183.415909 672.845825,153.349976 
	C671.207458,150.843414 669.313538,149.863480 666.127380,149.897400 
	C646.800537,150.103241 627.467896,150.169342 608.143127,149.881805 
	C603.267700,149.809265 601.935120,151.447144 601.939392,156.025925 
	C602.021423,243.339737 602.024170,330.653656 601.921631,417.967438 
	C601.916992,421.927582 603.031982,423.127594 607.018494,423.085022 
	C625.179016,422.891144 643.342834,423.000000 661.505432,423.000000 
	C664.273743,423.000000 667.042053,423.000000 670.000000,423.000000 
	C670.000000,398.446777 670.000000,374.473389 670.000000,349.500000 
M285.000000,325.684235 
	C285.000000,321.044373 285.055725,316.403748 284.990234,311.764832 
	C284.725616,293.022369 284.215729,274.280640 284.198486,255.538269 
	C284.183533,239.304733 284.829437,223.071732 284.967651,206.836639 
	C285.112366,189.841461 284.917450,172.843414 285.057526,155.848160 
	C285.092987,151.547821 283.853210,149.686340 279.175690,149.901733 
	C271.360596,150.261612 263.516846,150.000000 255.685181,150.000000 
	C242.906189,150.000000 230.127197,150.000000 216.799500,150.000000 
	C216.799500,204.915009 216.799500,259.391144 216.799500,314.445984 
	C215.802383,313.773987 215.335510,313.617706 215.124283,313.294434 
	C200.941513,291.583984 186.869827,269.800415 172.593918,248.151505 
	C151.659637,216.405426 130.536987,184.783478 109.655235,153.003082 
	C108.170586,150.743561 106.877785,149.929077 104.268387,149.942322 
	C83.773239,150.046402 63.277321,149.994537 42.781677,150.018784 
	C41.859650,150.019867 40.937939,150.290894 40.350029,150.383560 
	C40.350029,241.457428 40.350029,332.182800 40.350029,422.650574 
	C63.104462,422.650574 85.508018,422.650574 108.257523,422.650574 
	C108.257523,368.915253 108.257523,315.528900 108.257523,260.928589 
	C109.752228,262.247070 110.626953,262.756775 111.138588,263.512299 
	C114.569687,268.579041 117.945892,273.683411 121.298286,278.802856 
	C131.973999,295.105774 142.555984,311.470612 153.312210,327.720154 
	C173.769989,358.625885 194.294373,389.487823 214.931747,420.273621 
	C215.859055,421.656921 218.163666,422.869629 219.838196,422.884583 
	C239.832367,423.063416 259.830231,422.869690 279.823303,423.102173 
	C284.194733,423.152985 285.096588,421.643585 285.077728,417.625153 
	C284.935333,387.298889 285.000000,356.971649 285.000000,325.684235 
M964.635864,414.965576 
	C979.471313,420.946503 995.052063,424.050537 1010.869568,424.766418 
	C1022.477295,425.291748 1034.210327,423.977203 1045.836304,422.919342 
	C1058.594116,421.758484 1070.761230,417.942871 1082.194458,412.259155 
	C1102.446167,402.191650 1120.257690,388.824493 1133.232178,370.089722 
	C1145.318970,352.636841 1155.170898,334.382416 1153.228882,311.673187 
	C1152.002563,297.332275 1153.000000,282.801178 1153.000000,268.000000 
	C1150.944824,268.000000 1149.318481,268.000000 1147.692017,268.000000 
	C1122.031616,268.000000 1096.371094,268.000000 1070.710693,268.000000 
	C1051.048828,268.000000 1031.386841,268.004608 1011.724915,267.993958 
	C1009.337952,267.992676 1006.957153,267.683350 1006.972595,271.325531 
	C1007.039062,287.102448 1007.001038,302.879822 1007.001038,318.969177 
	C1034.880005,318.969177 1062.316406,318.969177 1089.822021,318.969177 
	C1087.514893,329.180084 1081.026978,338.916168 1074.665161,345.786072 
	C1062.328125,359.108215 1046.224609,364.139954 1028.818848,364.770996 
	C1020.137451,365.085754 1011.169983,363.838409 1002.680542,361.826630 
	C983.925354,357.382080 969.619446,346.406494 960.734558,329.178650 
	C951.840576,311.933350 949.510742,293.565765 951.879761,274.286133 
	C954.067505,256.482666 960.257751,241.017792 973.194031,228.166916 
	C991.520569,209.961380 1013.942139,207.118042 1037.523560,211.548965 
	C1051.699463,214.212601 1063.978394,221.933395 1071.597900,235.133423 
	C1073.043335,237.637466 1074.918213,238.058441 1077.536377,238.048264 
	C1099.364014,237.963257 1121.192261,238.000000 1143.020264,238.000000 
	C1144.641113,238.000000 1146.262085,238.000000 1147.990234,238.000000 
	C1147.990234,236.861618 1148.139160,236.156738 1147.968750,235.540176 
	C1140.505615,208.548325 1126.098633,186.293625 1103.033936,170.011887 
	C1082.408325,155.451996 1058.985352,148.648987 1034.194580,147.255722 
	C1020.616333,146.492615 1006.803528,147.593704 993.257507,149.206345 
	C979.359436,150.860870 966.037231,155.361099 953.548950,161.906906 
	C936.004944,171.102707 921.016113,183.247559 909.113525,199.282608 
	C891.786316,222.625626 883.274963,248.982025 882.181274,277.694641 
	C881.745056,289.148346 883.266235,300.683441 884.015808,312.173676 
	C884.910950,325.893585 889.766602,338.570068 895.491333,350.772461 
	C903.911621,368.720520 915.801086,384.402710 931.898376,396.038971 
	C941.844788,403.228973 953.245422,408.407227 964.635864,414.965576 
M1582.482910,256.000000 
	C1552.726196,256.000000 1522.969482,256.000000 1492.822754,256.000000 
	C1492.822754,220.355911 1492.822754,185.287170 1492.822754,150.285065 
	C1470.025391,150.285065 1447.622925,150.285065 1425.270264,150.285065 
	C1425.270264,241.296082 1425.270264,332.021759 1425.270264,422.730164 
	C1447.943848,422.730164 1470.346191,422.730164 1493.139404,422.730164 
	C1493.139404,385.393768 1493.139404,348.325439 1493.139404,311.263672 
	C1526.934082,311.263672 1560.334717,311.263672 1594.127197,311.263672 
	C1594.127197,348.593811 1594.127197,385.662140 1594.127197,422.999420 
	C1615.818970,422.999420 1637.118774,422.955902 1658.418213,423.043243 
	C1661.878174,423.057465 1662.039795,421.133026 1662.026367,418.530975 
	C1661.965820,406.866943 1662.000000,395.202454 1662.000000,383.538116 
	C1662.000000,339.896881 1662.000000,296.255646 1662.000000,252.614395 
	C1662.000000,220.287537 1661.971069,187.960602 1662.037231,155.633881 
	C1662.045410,151.667191 1661.062744,149.821854 1656.464600,149.888168 
	C1637.805542,150.157242 1619.140381,150.000000 1600.477417,150.000000 
	C1598.381348,150.000000 1596.285278,150.000000 1593.806885,150.000000 
	C1593.806885,185.660278 1593.806885,220.729034 1593.806885,256.000000 
	C1590.103516,256.000000 1586.790161,256.000000 1582.482910,256.000000 
M397.000000,303.495789 
	C397.000000,252.405212 397.000000,201.314636 397.000000,150.285263 
	C374.027679,150.285263 351.623871,150.285263 329.000000,150.285263 
	C329.000000,164.711990 328.919983,178.855011 329.014893,192.996857 
	C329.307373,236.577545 329.720673,280.157471 329.967896,323.738373 
	C330.044403,337.222198 333.060394,350.060944 338.043915,362.442047 
	C346.337311,383.046417 359.497131,399.768646 379.172241,410.537750 
	C403.420044,423.809662 429.572601,427.637634 456.907532,425.042938 
	C474.768707,423.347534 491.848541,418.948486 507.292786,409.795105 
	C514.917847,405.275940 522.309143,399.874115 528.543335,393.614014 
	C537.318481,384.802460 544.107788,374.378326 549.135498,362.774567 
	C554.284546,350.890778 557.720276,338.504364 557.814514,325.784943 
	C558.239624,268.461517 558.002014,211.133194 557.987183,153.806641 
	C557.986877,152.552353 557.794678,151.298141 557.688477,150.000000 
	C536.791138,150.000000 516.294861,150.138916 495.803162,149.893646 
	C491.190125,149.838440 489.879639,151.060303 489.894318,155.749222 
	C490.060913,208.909073 489.894135,262.070068 490.110138,315.229584 
	C490.143921,323.543762 489.057526,331.573761 485.823425,339.001556 
	C482.137085,347.468109 476.028229,354.132874 467.267517,358.039093 
	C456.552979,362.816528 445.608154,363.818787 433.973267,362.145599 
	C419.445953,360.056427 408.785553,352.947754 402.536346,339.902618 
	C397.209961,328.783783 396.757904,316.627563 397.000000,303.495789 
M1227.445801,414.041595 
	C1231.438843,415.692841 1235.332886,417.664246 1239.443604,418.934448 
	C1251.097778,422.535583 1263.029175,424.205292 1275.236328,425.317413 
	C1287.696045,426.452576 1299.941650,425.885132 1311.969604,423.745056 
	C1323.742920,421.650299 1335.089111,417.507233 1345.550049,411.161224 
	C1362.397827,400.940735 1374.529907,387.102356 1381.273560,368.428345 
	C1385.462646,356.828217 1384.987793,344.921997 1385.011353,332.975037 
	C1385.029053,324.031189 1382.549927,315.568634 1378.286499,308.007294 
	C1370.576782,294.333984 1359.231079,283.806854 1345.089111,277.195282 
	C1331.190918,270.697601 1316.699829,265.416138 1302.296387,260.065582 
	C1288.628052,254.988098 1274.598755,250.943802 1262.072632,243.067947 
	C1247.994141,234.215988 1249.271240,212.756577 1261.567749,205.588425 
	C1270.336182,200.476898 1278.961914,199.776779 1288.109985,202.663315 
	C1299.317627,206.199783 1306.713745,213.356262 1308.043335,225.662491 
	C1308.339722,228.406143 1310.085693,229.096313 1312.836426,229.072083 
	C1329.333252,228.926727 1345.831787,229.000000 1362.329834,229.000000 
	C1368.784912,229.000000 1375.240112,229.000000 1382.591064,229.000000 
	C1381.673218,223.193359 1380.913086,217.934448 1380.002075,212.701813 
	C1376.136353,190.499847 1363.530151,174.064209 1345.108032,162.133240 
	C1328.481689,151.365158 1309.430786,147.302338 1289.978760,146.150009 
	C1269.327759,144.926697 1248.892944,146.897552 1229.509521,155.014465 
	C1211.480957,162.564026 1196.660156,173.852478 1187.722656,191.741837 
	C1179.629517,207.941025 1178.474976,225.097183 1180.998779,242.715179 
	C1184.160645,264.788086 1196.338013,280.984589 1215.644287,290.827179 
	C1230.704834,298.505219 1246.873779,304.132965 1262.832642,309.888947 
	C1277.739258,315.265411 1293.188477,318.933319 1306.206543,328.891724 
	C1317.032715,337.173401 1316.877563,358.289185 1305.900879,365.079559 
	C1295.391724,371.580658 1284.667236,372.248718 1272.858398,369.194275 
	C1261.879761,366.354553 1252.954346,355.278076 1252.102783,345.016785 
	C1251.765747,340.954163 1250.296631,339.872345 1246.353760,339.913757 
	C1227.857910,340.107880 1209.359131,340.000000 1190.861328,340.000000 
	C1179.141968,340.000000 1179.036743,340.009094 1180.024292,351.426056 
	C1181.456421,367.984985 1188.489380,382.057983 1199.668457,394.134918 
	C1207.378296,402.463959 1216.635010,408.765106 1227.445801,414.041595 
M2844.578369,340.938538 
	C2845.385498,335.307068 2846.911377,329.667114 2846.844971,324.045929 
	C2846.721191,313.544250 2846.117188,303.002411 2844.916016,292.569061 
	C2842.578857,272.268982 2833.784180,254.561432 2820.614746,239.285141 
	C2801.444580,217.048096 2776.122803,206.005798 2747.458740,203.259338 
	C2732.636963,201.839203 2717.522949,202.224152 2702.779541,205.974686 
	C2671.502930,213.931305 2647.617676,231.343628 2632.979736,260.478241 
	C2620.195557,285.922638 2618.281738,313.000854 2623.384033,340.411163 
	C2627.807373,364.173706 2638.939209,384.509186 2657.838135,400.575165 
	C2676.239014,416.217499 2697.694336,423.689148 2721.020752,425.752075 
	C2737.139893,427.177612 2753.261719,425.830139 2769.199951,421.220276 
	C2793.185791,414.282837 2812.778320,401.602570 2827.183838,381.235596 
	C2835.625732,369.299744 2841.504395,356.144745 2844.578369,340.938538 
M2206.965088,264.383881 
	C2210.148438,258.254364 2213.352295,252.135391 2216.511475,245.993393 
	C2228.135254,223.395401 2239.736572,200.785965 2251.364258,178.190079 
	C2254.232178,172.617035 2257.196533,167.093704 2260.061768,161.519379 
	C2261.914307,157.915665 2263.666992,154.260696 2265.775635,150.000000 
	C2243.793213,150.000000 2222.966064,150.410568 2202.168701,149.802155 
	C2193.597656,149.551407 2188.250244,150.866501 2185.073730,160.089462 
	C2181.228516,171.254379 2175.161621,181.643661 2170.222412,192.444626 
	C2160.220459,214.316910 2150.341797,236.245590 2140.364014,258.128998 
	C2139.832275,259.294891 2138.854004,260.256958 2137.677246,261.871124 
	C2130.990967,247.294250 2124.713623,233.584015 2118.415039,219.883713 
	C2108.230713,197.732040 2098.019043,175.593124 2087.859619,153.430176 
	C2086.715576,150.934235 2085.211914,149.891724 2082.229248,149.912216 
	C2059.071045,150.071289 2035.911255,149.997635 2012.752075,150.009827 
	C2011.865234,150.010284 2010.978516,150.151901 2009.443970,150.283142 
	C2019.246216,169.147980 2028.728271,187.386169 2038.200684,205.629318 
	C2048.801270,226.045654 2059.408936,246.458527 2069.985107,266.887634 
	C2079.817139,285.879120 2089.522949,304.936493 2099.475342,323.864410 
	C2102.491211,329.599731 2104.231689,335.274475 2104.140137,341.951874 
	C2103.792236,367.272339 2104.000000,392.600433 2104.000000,417.925690 
	C2104.000000,419.530121 2104.000000,421.134552 2104.000000,422.740845 
	C2126.592529,422.740845 2148.659668,422.740845 2171.000000,422.740845 
	C2171.000000,420.853058 2171.000000,419.213318 2171.000000,417.573547 
	C2171.000000,391.082001 2170.952393,364.590271 2171.078369,338.099304 
	C2171.090088,335.621826 2171.749512,332.921417 2172.869629,330.710144 
	C2183.987793,308.760071 2195.266846,286.891357 2206.965088,264.383881 
M1944.500000,260.000000 
	C1925.738647,260.000000 1906.977295,260.000000 1888.287354,260.000000 
	C1888.287354,241.356384 1888.287354,223.285812 1888.287354,204.823853 
	C1925.309326,204.823853 1962.045532,204.823853 1998.712891,204.823853 
	C1998.712891,186.356766 1998.712891,168.286194 1998.712891,150.267868 
	C1998.116211,150.144684 1997.804443,150.024002 1997.492676,150.023926 
	C1939.835083,150.010330 1882.177246,150.056259 1824.520020,149.904419 
	C1819.853638,149.892136 1819.966309,152.247925 1819.967773,155.530930 
	C1820.008301,243.350677 1819.999023,331.170441 1820.010132,418.990204 
	C1820.010254,420.260559 1820.160645,421.530945 1820.235352,422.713989 
	C1842.974976,422.713989 1865.378296,422.713989 1888.173828,422.713989 
	C1888.173828,386.026550 1888.173828,349.623535 1888.173828,312.827942 
	C1915.971436,312.827942 1943.376099,312.827942 1970.714111,312.827942 
	C1970.714111,295.025848 1970.714111,277.621857 1970.714111,260.000000 
	C1962.119995,260.000000 1953.809937,260.000000 1944.500000,260.000000 
M2574.976318,393.538269 
	C2576.648926,391.714233 2578.438965,389.983521 2579.975098,388.050934 
	C2589.447510,376.132751 2595.003174,362.365417 2599.053955,347.844910 
	C2600.033936,344.332031 2599.775391,342.904205 2595.626465,342.932526 
	C2574.298340,343.078186 2552.968018,343.101440 2531.640869,342.896271 
	C2528.241455,342.863586 2526.968018,344.375641 2526.017090,347.031403 
	C2523.344727,354.495483 2518.331299,359.989899 2511.498291,363.813873 
	C2502.647217,368.767517 2493.078125,369.147766 2483.608154,366.684357 
	C2477.078369,364.985809 2471.393311,361.406555 2466.903809,355.860992 
	C2458.041260,344.913849 2455.945801,331.890167 2455.130615,318.620697 
	C2454.438721,307.365479 2456.143799,296.247162 2459.983887,285.523102 
	C2466.464844,267.424438 2485.921631,256.587280 2505.401367,262.722229 
	C2516.852539,266.328613 2522.745361,274.740295 2527.365479,284.835449 
	C2551.425049,284.835449 2575.512451,284.835449 2599.763672,284.835449 
	C2594.079834,261.466858 2584.206787,240.936798 2565.122803,225.489212 
	C2548.635254,212.143341 2529.697998,204.907776 2508.983643,203.288818 
	C2496.276367,202.295670 2483.387939,202.460327 2470.495361,204.778442 
	C2445.807861,209.217346 2425.469971,220.904236 2409.811279,239.966721 
	C2393.675537,259.610016 2387.081543,283.227234 2386.164307,308.305573 
	C2385.818604,317.765137 2387.074951,327.319092 2388.050293,336.783722 
	C2390.143311,357.094513 2398.297363,375.067871 2411.248047,390.553467 
	C2429.728027,412.650787 2454.541504,423.298615 2482.615723,425.783325 
	C2502.382812,427.532776 2522.222168,426.091949 2540.804688,417.924255 
	C2553.602783,412.299011 2565.509277,405.198273 2574.976318,393.538269 
M1747.500000,423.000000 
	C1756.264893,423.000000 1765.029785,423.000000 1773.714355,423.000000 
	C1773.714355,331.689240 1773.714355,240.955368 1773.714355,150.288300 
	C1751.022949,150.288300 1728.618408,150.288300 1706.285645,150.288300 
	C1706.285645,241.310272 1706.285645,332.043945 1706.285645,423.000000 
	C1719.880127,423.000000 1733.190063,423.000000 1747.500000,423.000000 
M2283.000000,384.793732 
	C2282.061279,394.491516 2283.361816,404.077911 2289.495361,411.606598 
	C2302.132568,427.118561 2323.140869,429.383606 2339.890869,422.903107 
	C2355.313965,416.935944 2364.812744,400.092041 2361.120850,382.575348 
	C2358.788086,371.507782 2353.218994,363.338867 2343.423340,357.811859 
	C2335.275391,353.214630 2326.722656,352.229706 2317.429932,352.845947 
	C2299.333008,354.046021 2286.034668,366.352173 2283.000000,384.793732 
z"/>
<path fill="#FFFFFF" opacity="1.000000" stroke="none" 
	d="
M3169.747803,276.255432 
	C3162.448730,268.055664 3153.655518,263.607941 3143.062012,263.031952 
	C3134.378174,262.559814 3125.701904,262.843933 3117.794678,267.054932 
	C3107.254883,272.667755 3101.106445,281.664276 3099.083984,293.310669 
	C3098.247070,298.131317 3098.055176,303.111725 3098.044189,308.020508 
	C3097.962646,344.517151 3098.000000,381.014069 3098.000000,417.510895 
	C3098.000000,419.153992 3098.000000,420.797058 3098.000000,422.719116 
	C3075.366699,422.719116 3052.962402,422.719116 3030.000000,422.719116 
	C3030.000000,421.005280 3030.000000,419.237976 3030.000000,417.470673 
	C3030.000000,378.640717 3030.047363,339.810669 3029.961182,300.980896 
	C3029.943359,292.910095 3027.530762,285.411255 3023.103760,278.635254 
	C3017.145264,269.514862 3008.236816,264.379456 2997.866455,263.254303 
	C2986.712891,262.044159 2975.475342,262.332855 2965.555664,269.707245 
	C2955.706055,277.029633 2950.179932,286.525055 2950.102295,298.535187 
	C2949.835938,339.779419 2950.000000,381.026459 2950.000000,422.605621 
	C2947.716064,422.793671 2946.462891,422.985535 2945.209961,422.986725 
	C2925.378418,423.005585 2905.546387,422.946533 2885.715332,423.053101 
	C2882.449219,423.070648 2880.928223,422.388367 2880.933105,418.663788 
	C2881.023682,348.008575 2881.000000,277.353241 2881.000000,206.348969 
	C2903.494629,206.348969 2925.899902,206.348969 2948.820801,206.348969 
	C2948.820801,213.617126 2948.820801,221.163757 2948.820801,230.516617 
	C2969.073242,209.055832 2992.877441,201.443481 3020.443604,203.928024 
	C3047.936035,206.405991 3069.583252,218.270294 3084.556396,241.934021 
	C3087.148682,239.013474 3090.041748,236.273026 3092.315674,233.090347 
	C3098.158203,224.913727 3106.406738,219.746811 3114.758545,214.760895 
	C3126.034424,208.029266 3138.163086,204.536087 3151.473877,203.798752 
	C3167.804443,202.894135 3183.612793,204.714478 3198.368652,211.333313 
	C3213.415039,218.082230 3225.809326,228.570465 3233.763428,243.432587 
	C3240.054443,255.187347 3244.337646,267.613892 3245.013672,281.090973 
	C3245.277100,286.343811 3245.945801,291.589783 3245.955811,296.839783 
	C3246.034912,338.663055 3246.000000,380.486542 3246.000000,422.654938 
	C3223.830566,422.654938 3201.758545,422.654938 3179.000000,422.654938 
	C3179.000000,421.151978 3179.000000,419.402100 3179.000000,417.652252 
	C3179.000000,380.988770 3179.236816,344.322815 3178.855225,307.663300 
	C3178.741211,296.712250 3177.413818,285.629913 3169.747803,276.255432 
z"/>
<path fill="#FFFFFF" opacity="1.000000" stroke="none" 
	d="
M670.000000,350.000000 
	C670.000000,374.473389 670.000000,398.446777 670.000000,423.000000 
	C667.042053,423.000000 664.273743,423.000000 661.505432,423.000000 
	C643.342834,423.000000 625.179016,422.891144 607.018494,423.085022 
	C603.031982,423.127594 601.916992,421.927582 601.921631,417.967438 
	C602.024170,330.653656 602.021423,243.339737 601.939392,156.025925 
	C601.935120,151.447144 603.267700,149.809265 608.143127,149.881805 
	C627.467896,150.169342 646.800537,150.103241 666.127380,149.897400 
	C669.313538,149.863480 671.207458,150.843414 672.845825,153.349976 
	C692.497803,183.415909 712.187378,213.457260 731.876038,243.499191 
	C746.973999,266.536560 762.083374,289.566498 777.208313,312.586182 
	C777.346985,312.797241 777.768982,312.822174 778.637329,313.157288 
	C778.637329,258.814850 778.637329,204.697037 778.637329,150.290375 
	C801.611816,150.290375 824.014038,150.290375 846.708740,150.290375 
	C846.708740,240.934448 846.708740,331.658783 846.708740,422.715332 
	C845.754211,422.801483 844.654846,422.986206 843.555420,422.987183 
	C823.393250,423.004578 803.230957,422.962555 783.069092,423.042145 
	C780.192505,423.053467 778.501892,422.270386 776.770081,419.631744 
	C753.249878,383.795135 729.526123,348.092163 705.857666,312.352844 
	C695.268616,296.363434 684.708130,280.355042 674.071228,264.397614 
	C673.321228,263.272491 672.044800,262.498322 670.000000,260.640320 
	C670.000000,291.293427 670.000000,320.396698 670.000000,350.000000 
z"/>
<path fill="#FFFFFF" opacity="1.000000" stroke="none" 
	d="
M285.000000,326.164490 
	C285.000000,356.971649 284.935333,387.298889 285.077728,417.625153 
	C285.096588,421.643585 284.194733,423.152985 279.823303,423.102173 
	C259.830231,422.869690 239.832367,423.063416 219.838196,422.884583 
	C218.163666,422.869629 215.859055,421.656921 214.931747,420.273621 
	C194.294373,389.487823 173.769989,358.625885 153.312210,327.720154 
	C142.555984,311.470612 131.973999,295.105774 121.298286,278.802856 
	C117.945892,273.683411 114.569687,268.579041 111.138588,263.512299 
	C110.626953,262.756775 109.752228,262.247070 108.257523,260.928589 
	C108.257523,315.528900 108.257523,368.915253 108.257523,422.650574 
	C85.508018,422.650574 63.104462,422.650574 40.350029,422.650574 
	C40.350029,332.182800 40.350029,241.457428 40.350029,150.383560 
	C40.937939,150.290894 41.859650,150.019867 42.781677,150.018784 
	C63.277321,149.994537 83.773239,150.046402 104.268387,149.942322 
	C106.877785,149.929077 108.170586,150.743561 109.655235,153.003082 
	C130.536987,184.783478 151.659637,216.405426 172.593918,248.151505 
	C186.869827,269.800415 200.941513,291.583984 215.124283,313.294434 
	C215.335510,313.617706 215.802383,313.773987 216.799500,314.445984 
	C216.799500,259.391144 216.799500,204.915009 216.799500,150.000000 
	C230.127197,150.000000 242.906189,150.000000 255.685181,150.000000 
	C263.516846,150.000000 271.360596,150.261612 279.175690,149.901733 
	C283.853210,149.686340 285.092987,151.547821 285.057526,155.848160 
	C284.917450,172.843414 285.112366,189.841461 284.967651,206.836639 
	C284.829437,223.071732 284.183533,239.304733 284.198486,255.538269 
	C284.215729,274.280640 284.725616,293.022369 284.990234,311.764832 
	C285.055725,316.403748 285.000000,321.044373 285.000000,326.164490 
z"/>
<path fill="#FFFFFF" opacity="1.000000" stroke="none" 
	d="
M964.314575,414.727081 
	C953.245422,408.407227 941.844788,403.228973 931.898376,396.038971 
	C915.801086,384.402710 903.911621,368.720520 895.491333,350.772461 
	C889.766602,338.570068 884.910950,325.893585 884.015808,312.173676 
	C883.266235,300.683441 881.745056,289.148346 882.181274,277.694641 
	C883.274963,248.982025 891.786316,222.625626 909.113525,199.282608 
	C921.016113,183.247559 936.004944,171.102707 953.548950,161.906906 
	C966.037231,155.361099 979.359436,150.860870 993.257507,149.206345 
	C1006.803528,147.593704 1020.616333,146.492615 1034.194580,147.255722 
	C1058.985352,148.648987 1082.408325,155.451996 1103.033936,170.011887 
	C1126.098633,186.293625 1140.505615,208.548325 1147.968750,235.540176 
	C1148.139160,236.156738 1147.990234,236.861618 1147.990234,238.000000 
	C1146.262085,238.000000 1144.641113,238.000000 1143.020264,238.000000 
	C1121.192261,238.000000 1099.364014,237.963257 1077.536377,238.048264 
	C1074.918213,238.058441 1073.043335,237.637466 1071.597900,235.133423 
	C1063.978394,221.933395 1051.699463,214.212601 1037.523560,211.548965 
	C1013.942139,207.118042 991.520569,209.961380 973.194031,228.166916 
	C960.257751,241.017792 954.067505,256.482666 951.879761,274.286133 
	C949.510742,293.565765 951.840576,311.933350 960.734558,329.178650 
	C969.619446,346.406494 983.925354,357.382080 1002.680542,361.826630 
	C1011.169983,363.838409 1020.137451,365.085754 1028.818848,364.770996 
	C1046.224609,364.139954 1062.328125,359.108215 1074.665161,345.786072 
	C1081.026978,338.916168 1087.514893,329.180084 1089.822021,318.969177 
	C1062.316406,318.969177 1034.880005,318.969177 1007.001038,318.969177 
	C1007.001038,302.879822 1007.039062,287.102448 1006.972595,271.325531 
	C1006.957153,267.683350 1009.337952,267.992676 1011.724915,267.993958 
	C1031.386841,268.004608 1051.048828,268.000000 1070.710693,268.000000 
	C1096.371094,268.000000 1122.031616,268.000000 1147.692017,268.000000 
	C1149.318481,268.000000 1150.944824,268.000000 1153.000000,268.000000 
	C1153.000000,282.801178 1152.002563,297.332275 1153.228882,311.673187 
	C1155.170898,334.382416 1145.318970,352.636841 1133.232178,370.089722 
	C1120.257690,388.824493 1102.446167,402.191650 1082.194458,412.259155 
	C1070.761230,417.942871 1058.594116,421.758484 1045.836304,422.919342 
	C1034.210327,423.977203 1022.477295,425.291748 1010.869568,424.766418 
	C995.052063,424.050537 979.471313,420.946503 964.314575,414.727081 
z"/>
<path fill="#FFFFFF" opacity="1.000000" stroke="none" 
	d="
M1582.979858,256.000000 
	C1586.790161,256.000000 1590.103516,256.000000 1593.806885,256.000000 
	C1593.806885,220.729034 1593.806885,185.660278 1593.806885,150.000000 
	C1596.285278,150.000000 1598.381348,150.000000 1600.477417,150.000000 
	C1619.140381,150.000000 1637.805542,150.157242 1656.464600,149.888168 
	C1661.062744,149.821854 1662.045410,151.667191 1662.037231,155.633881 
	C1661.971069,187.960602 1662.000000,220.287537 1662.000000,252.614395 
	C1662.000000,296.255646 1662.000000,339.896881 1662.000000,383.538116 
	C1662.000000,395.202454 1661.965820,406.866943 1662.026367,418.530975 
	C1662.039795,421.133026 1661.878174,423.057465 1658.418213,423.043243 
	C1637.118774,422.955902 1615.818970,422.999420 1594.127197,422.999420 
	C1594.127197,385.662140 1594.127197,348.593811 1594.127197,311.263672 
	C1560.334717,311.263672 1526.934082,311.263672 1493.139404,311.263672 
	C1493.139404,348.325439 1493.139404,385.393768 1493.139404,422.730164 
	C1470.346191,422.730164 1447.943848,422.730164 1425.270264,422.730164 
	C1425.270264,332.021759 1425.270264,241.296082 1425.270264,150.285065 
	C1447.622925,150.285065 1470.025391,150.285065 1492.822754,150.285065 
	C1492.822754,185.287170 1492.822754,220.355911 1492.822754,256.000000 
	C1522.969482,256.000000 1552.726196,256.000000 1582.979858,256.000000 
z"/>
<path fill="#FFFFFF" opacity="1.000000" stroke="none" 
	d="
M397.000000,303.994629 
	C396.757904,316.627563 397.209961,328.783783 402.536346,339.902618 
	C408.785553,352.947754 419.445953,360.056427 433.973267,362.145599 
	C445.608154,363.818787 456.552979,362.816528 467.267517,358.039093 
	C476.028229,354.132874 482.137085,347.468109 485.823425,339.001556 
	C489.057526,331.573761 490.143921,323.543762 490.110138,315.229584 
	C489.894135,262.070068 490.060913,208.909073 489.894318,155.749222 
	C489.879639,151.060303 491.190125,149.838440 495.803162,149.893646 
	C516.294861,150.138916 536.791138,150.000000 557.688477,150.000000 
	C557.794678,151.298141 557.986877,152.552353 557.987183,153.806641 
	C558.002014,211.133194 558.239624,268.461517 557.814514,325.784943 
	C557.720276,338.504364 554.284546,350.890778 549.135498,362.774567 
	C544.107788,374.378326 537.318481,384.802460 528.543335,393.614014 
	C522.309143,399.874115 514.917847,405.275940 507.292786,409.795105 
	C491.848541,418.948486 474.768707,423.347534 456.907532,425.042938 
	C429.572601,427.637634 403.420044,423.809662 379.172241,410.537750 
	C359.497131,399.768646 346.337311,383.046417 338.043915,362.442047 
	C333.060394,350.060944 330.044403,337.222198 329.967896,323.738373 
	C329.720673,280.157471 329.307373,236.577545 329.014893,192.996857 
	C328.919983,178.855011 329.000000,164.711990 329.000000,150.285263 
	C351.623871,150.285263 374.027679,150.285263 397.000000,150.285263 
	C397.000000,201.314636 397.000000,252.405212 397.000000,303.994629 
z"/>
<path fill="#FFFFFF" opacity="1.000000" stroke="none" 
	d="
M1227.057495,414.005676 
	C1216.635010,408.765106 1207.378296,402.463959 1199.668457,394.134918 
	C1188.489380,382.057983 1181.456421,367.984985 1180.024292,351.426056 
	C1179.036743,340.009094 1179.141968,340.000000 1190.861328,340.000000 
	C1209.359131,340.000000 1227.857910,340.107880 1246.353760,339.913757 
	C1250.296631,339.872345 1251.765747,340.954163 1252.102783,345.016785 
	C1252.954346,355.278076 1261.879761,366.354553 1272.858398,369.194275 
	C1284.667236,372.248718 1295.391724,371.580658 1305.900879,365.079559 
	C1316.877563,358.289185 1317.032715,337.173401 1306.206543,328.891724 
	C1293.188477,318.933319 1277.739258,315.265411 1262.832642,309.888947 
	C1246.873779,304.132965 1230.704834,298.505219 1215.644287,290.827179 
	C1196.338013,280.984589 1184.160645,264.788086 1180.998779,242.715179 
	C1178.474976,225.097183 1179.629517,207.941025 1187.722656,191.741837 
	C1196.660156,173.852478 1211.480957,162.564026 1229.509521,155.014465 
	C1248.892944,146.897552 1269.327759,144.926697 1289.978760,146.150009 
	C1309.430786,147.302338 1328.481689,151.365158 1345.108032,162.133240 
	C1363.530151,174.064209 1376.136353,190.499847 1380.002075,212.701813 
	C1380.913086,217.934448 1381.673218,223.193359 1382.591064,229.000000 
	C1375.240112,229.000000 1368.784912,229.000000 1362.329834,229.000000 
	C1345.831787,229.000000 1329.333252,228.926727 1312.836426,229.072083 
	C1310.085693,229.096313 1308.339722,228.406143 1308.043335,225.662491 
	C1306.713745,213.356262 1299.317627,206.199783 1288.109985,202.663315 
	C1278.961914,199.776779 1270.336182,200.476898 1261.567749,205.588425 
	C1249.271240,212.756577 1247.994141,234.215988 1262.072632,243.067947 
	C1274.598755,250.943802 1288.628052,254.988098 1302.296387,260.065582 
	C1316.699829,265.416138 1331.190918,270.697601 1345.089111,277.195282 
	C1359.231079,283.806854 1370.576782,294.333984 1378.286499,308.007294 
	C1382.549927,315.568634 1385.029053,324.031189 1385.011353,332.975037 
	C1384.987793,344.921997 1385.462646,356.828217 1381.273560,368.428345 
	C1374.529907,387.102356 1362.397827,400.940735 1345.550049,411.161224 
	C1335.089111,417.507233 1323.742920,421.650299 1311.969604,423.745056 
	C1299.941650,425.885132 1287.696045,426.452576 1275.236328,425.317413 
	C1263.029175,424.205292 1251.097778,422.535583 1239.443604,418.934448 
	C1235.332886,417.664246 1231.438843,415.692841 1227.057495,414.005676 
z"/>
<path fill="#FFFFFF" opacity="1.000000" stroke="none" 
	d="
M2844.312012,341.285828 
	C2841.504395,356.144745 2835.625732,369.299744 2827.183838,381.235596 
	C2812.778320,401.602570 2793.185791,414.282837 2769.199951,421.220276 
	C2753.261719,425.830139 2737.139893,427.177612 2721.020752,425.752075 
	C2697.694336,423.689148 2676.239014,416.217499 2657.838135,400.575165 
	C2638.939209,384.509186 2627.807373,364.173706 2623.384033,340.411163 
	C2618.281738,313.000854 2620.195557,285.922638 2632.979736,260.478241 
	C2647.617676,231.343628 2671.502930,213.931305 2702.779541,205.974686 
	C2717.522949,202.224152 2732.636963,201.839203 2747.458740,203.259338 
	C2776.122803,206.005798 2801.444580,217.048096 2820.614746,239.285141 
	C2833.784180,254.561432 2842.578857,272.268982 2844.916016,292.569061 
	C2846.117188,303.002411 2846.721191,313.544250 2846.844971,324.045929 
	C2846.911377,329.667114 2845.385498,335.307068 2844.312012,341.285828 
M2698.958496,349.436279 
	C2705.254395,358.125427 2712.998291,364.082916 2724.065918,366.201385 
	C2744.033203,370.023346 2763.115967,360.993683 2771.910400,343.055450 
	C2777.924316,330.789185 2778.879150,317.733643 2777.136475,304.143311 
	C2774.867676,286.453003 2767.141846,272.882568 2750.614014,265.292999 
	C2736.366943,258.750702 2719.097656,261.606171 2707.627197,270.830963 
	C2694.566406,281.335022 2690.751709,295.826660 2690.097412,311.473785 
	C2689.549072,324.586273 2691.667480,337.326324 2698.958496,349.436279 
z"/>
<path fill="#FFFFFF" opacity="1.000000" stroke="none" 
	d="
M2206.732910,264.691742 
	C2195.266846,286.891357 2183.987793,308.760071 2172.869629,330.710144 
	C2171.749512,332.921417 2171.090088,335.621826 2171.078369,338.099304 
	C2170.952393,364.590271 2171.000000,391.082001 2171.000000,417.573547 
	C2171.000000,419.213318 2171.000000,420.853058 2171.000000,422.740845 
	C2148.659668,422.740845 2126.592529,422.740845 2104.000000,422.740845 
	C2104.000000,421.134552 2104.000000,419.530121 2104.000000,417.925690 
	C2104.000000,392.600433 2103.792236,367.272339 2104.140137,341.951874 
	C2104.231689,335.274475 2102.491211,329.599731 2099.475342,323.864410 
	C2089.522949,304.936493 2079.817139,285.879120 2069.985107,266.887634 
	C2059.408936,246.458527 2048.801270,226.045654 2038.200684,205.629318 
	C2028.728271,187.386169 2019.246216,169.147980 2009.443970,150.283142 
	C2010.978516,150.151901 2011.865234,150.010284 2012.752075,150.009827 
	C2035.911255,149.997635 2059.071045,150.071289 2082.229248,149.912216 
	C2085.211914,149.891724 2086.715576,150.934235 2087.859619,153.430176 
	C2098.019043,175.593124 2108.230713,197.732040 2118.415039,219.883713 
	C2124.713623,233.584015 2130.990967,247.294250 2137.677246,261.871124 
	C2138.854004,260.256958 2139.832275,259.294891 2140.364014,258.128998 
	C2150.341797,236.245590 2160.220459,214.316910 2170.222412,192.444626 
	C2175.161621,181.643661 2181.228516,171.254379 2185.073730,160.089462 
	C2188.250244,150.866501 2193.597656,149.551407 2202.168701,149.802155 
	C2222.966064,150.410568 2243.793213,150.000000 2265.775635,150.000000 
	C2263.666992,154.260696 2261.914307,157.915665 2260.061768,161.519379 
	C2257.196533,167.093704 2254.232178,172.617035 2251.364258,178.190079 
	C2239.736572,200.785965 2228.135254,223.395401 2216.511475,245.993393 
	C2213.352295,252.135391 2210.148438,258.254364 2206.732910,264.691742 
z"/>
<path fill="#FFFFFF" opacity="1.000000" stroke="none" 
	d="
M1945.000000,260.000000 
	C1953.809937,260.000000 1962.119995,260.000000 1970.714111,260.000000 
	C1970.714111,277.621857 1970.714111,295.025848 1970.714111,312.827942 
	C1943.376099,312.827942 1915.971436,312.827942 1888.173828,312.827942 
	C1888.173828,349.623535 1888.173828,386.026550 1888.173828,422.713989 
	C1865.378296,422.713989 1842.974976,422.713989 1820.235352,422.713989 
	C1820.160645,421.530945 1820.010254,420.260559 1820.010132,418.990204 
	C1819.999023,331.170441 1820.008301,243.350677 1819.967773,155.530930 
	C1819.966309,152.247925 1819.853638,149.892136 1824.520020,149.904419 
	C1882.177246,150.056259 1939.835083,150.010330 1997.492676,150.023926 
	C1997.804443,150.024002 1998.116211,150.144684 1998.712891,150.267868 
	C1998.712891,168.286194 1998.712891,186.356766 1998.712891,204.823853 
	C1962.045532,204.823853 1925.309326,204.823853 1888.287354,204.823853 
	C1888.287354,223.285812 1888.287354,241.356384 1888.287354,260.000000 
	C1906.977295,260.000000 1925.738647,260.000000 1945.000000,260.000000 
z"/>
<path fill="#FFFFFF" opacity="1.000000" stroke="none" 
	d="
M2574.712158,393.785553 
	C2565.509277,405.198273 2553.602783,412.299011 2540.804688,417.924255 
	C2522.222168,426.091949 2502.382812,427.532776 2482.615723,425.783325 
	C2454.541504,423.298615 2429.728027,412.650787 2411.248047,390.553467 
	C2398.297363,375.067871 2390.143311,357.094513 2388.050293,336.783722 
	C2387.074951,327.319092 2385.818604,317.765137 2386.164307,308.305573 
	C2387.081543,283.227234 2393.675537,259.610016 2409.811279,239.966721 
	C2425.469971,220.904236 2445.807861,209.217346 2470.495361,204.778442 
	C2483.387939,202.460327 2496.276367,202.295670 2508.983643,203.288818 
	C2529.697998,204.907776 2548.635254,212.143341 2565.122803,225.489212 
	C2584.206787,240.936798 2594.079834,261.466858 2599.763672,284.835449 
	C2575.512451,284.835449 2551.425049,284.835449 2527.365479,284.835449 
	C2522.745361,274.740295 2516.852539,266.328613 2505.401367,262.722229 
	C2485.921631,256.587280 2466.464844,267.424438 2459.983887,285.523102 
	C2456.143799,296.247162 2454.438721,307.365479 2455.130615,318.620697 
	C2455.945801,331.890167 2458.041260,344.913849 2466.903809,355.860992 
	C2471.393311,361.406555 2477.078369,364.985809 2483.608154,366.684357 
	C2493.078125,369.147766 2502.647217,368.767517 2511.498291,363.813873 
	C2518.331299,359.989899 2523.344727,354.495483 2526.017090,347.031403 
	C2526.968018,344.375641 2528.241455,342.863586 2531.640869,342.896271 
	C2552.968018,343.101440 2574.298340,343.078186 2595.626465,342.932526 
	C2599.775391,342.904205 2600.033936,344.332031 2599.053955,347.844910 
	C2595.003174,362.365417 2589.447510,376.132751 2579.975098,388.050934 
	C2578.438965,389.983521 2576.648926,391.714233 2574.712158,393.785553 
z"/>
<path fill="#FFFFFF" opacity="1.000000" stroke="none" 
	d="
M1747.000000,423.000000 
	C1733.190063,423.000000 1719.880127,423.000000 1706.285645,423.000000 
	C1706.285645,332.043945 1706.285645,241.310272 1706.285645,150.288300 
	C1728.618408,150.288300 1751.022949,150.288300 1773.714355,150.288300 
	C1773.714355,240.955368 1773.714355,331.689240 1773.714355,423.000000 
	C1765.029785,423.000000 1756.264893,423.000000 1747.000000,423.000000 
z"/>
<path fill="#FFFFFF" opacity="1.000000" stroke="none" 
	d="
M2283.000000,384.333740 
	C2286.034668,366.352173 2299.333008,354.046021 2317.429932,352.845947 
	C2326.722656,352.229706 2335.275391,353.214630 2343.423340,357.811859 
	C2353.218994,363.338867 2358.788086,371.507782 2361.120850,382.575348 
	C2364.812744,400.092041 2355.313965,416.935944 2339.890869,422.903107 
	C2323.140869,429.383606 2302.132568,427.118561 2289.495361,411.606598 
	C2283.361816,404.077911 2282.061279,394.491516 2283.000000,384.333740 
z"/>
<path fill="none" opacity="1.000000" stroke="none" 
	d="
M2698.683838,349.182312 
	C2691.667480,337.326324 2689.549072,324.586273 2690.097412,311.473785 
	C2690.751709,295.826660 2694.566406,281.335022 2707.627197,270.830963 
	C2719.097656,261.606171 2736.366943,258.750702 2750.614014,265.292999 
	C2767.141846,272.882568 2774.867676,286.453003 2777.136475,304.143311 
	C2778.879150,317.733643 2777.924316,330.789185 2771.910400,343.055450 
	C2763.115967,360.993683 2744.033203,370.023346 2724.065918,366.201385 
	C2712.998291,364.082916 2705.254395,358.125427 2698.683838,349.182312 
z"/>
</svg>